<svg width="80" height="80" viewBox="0 0 80 80" xmlns="http://www.w3.org/2000/svg">
  <defs>
    <pattern id="tealPattern" width="80" height="80" patternUnits="userSpaceOnUse">
      <!-- Primary teal geometric shapes -->
      <circle cx="20" cy="20" r="2" fill="#0f766e" opacity="0.15"/>
      <circle cx="60" cy="60" r="2" fill="#0f766e" opacity="0.15"/>
      
      <!-- Secondary teal accents -->
      <circle cx="40" cy="40" r="1.5" fill="#14b8a6" opacity="0.12"/>
      <circle cx="10" cy="70" r="1.5" fill="#14b8a6" opacity="0.12"/>
      <circle cx="70" cy="10" r="1.5" fill="#14b8a6" opacity="0.12"/>
      
      <!-- Surface color subtle elements -->
      <circle cx="30" cy="10" r="1" fill="#0f766e" opacity="0.08"/>
      <circle cx="50" cy="70" r="1" fill="#0f766e" opacity="0.08"/>
      <circle cx="10" cy="30" r="1" fill="#0f766e" opacity="0.08"/>
      <circle cx="70" cy="50" r="1" fill="#0f766e" opacity="0.08"/>
      
      <!-- Subtle connecting lines -->
      <line x1="20" y1="20" x2="40" y2="40" stroke="#14b8a6" stroke-width="0.5" opacity="0.06"/>
      <line x1="40" y1="40" x2="60" y2="60" stroke="#14b8a6" stroke-width="0.5" opacity="0.06"/>
      
      <!-- Diagonal subtle pattern -->
      <line x1="0" y1="20" x2="20" y2="0" stroke="#0f766e" stroke-width="0.3" opacity="0.04"/>
      <line x1="60" y1="80" x2="80" y2="60" stroke="#0f766e" stroke-width="0.3" opacity="0.04"/>
      <line x1="20" y1="80" x2="40" y2="60" stroke="#0f766e" stroke-width="0.3" opacity="0.04"/>
      <line x1="40" y1="20" x2="60" y2="0" stroke="#0f766e" stroke-width="0.3" opacity="0.04"/>
      
      <!-- Small decorative elements -->
      <rect x="15" y="45" width="1" height="1" fill="#14b8a6" opacity="0.1"/>
      <rect x="45" y="15" width="1" height="1" fill="#14b8a6" opacity="0.1"/>
      <rect x="65" y="35" width="1" height="1" fill="#14b8a6" opacity="0.1"/>
      <rect x="35" y="65" width="1" height="1" fill="#14b8a6" opacity="0.1"/>
      
      <!-- Larger focal points -->
      <circle cx="0" cy="0" r="3" fill="#0f766e" opacity="0.05"/>
      <circle cx="80" cy="80" r="3" fill="#0f766e" opacity="0.05"/>
      <circle cx="0" cy="80" r="3" fill="#0f766e" opacity="0.05"/>
      <circle cx="80" cy="0" r="3" fill="#0f766e" opacity="0.05"/>
    </pattern>
  </defs>
  <rect width="100%" height="100%" fill="url(#tealPattern)"/>
</svg>
